<svg xmlns="http://www.w3.org/2000/svg" viewBox="0 0 26.3 25.25"><defs><style>.cls-1{fill:#fff;}</style></defs><title>iconsearch</title><g id="Capa_2" data-name="Capa 2"><g id="Capa_1-2" data-name="Capa 1"><path class="cls-1" d="M18.58,14.89l3,2.63,4,3.55A2,2,0,0,1,25.73,24l-.51.56a1.94,1.94,0,0,1-2.85.16l-5.21-4.61c-.39-.35-.79-.68-1.17-1s-.46-.47-.7-.72a9.9,9.9,0,0,1-8.73,1,9.52,9.52,0,0,1-5-4.06,9.94,9.94,0,1,1,17-.33Zm-14.76-5A6.13,6.13,0,1,0,10,3.81,6.11,6.11,0,0,0,3.82,9.92Z"/></g></g></svg>